<svg version="1" xmlns="http://www.w3.org/2000/svg" width="682.667" height="682.667" viewBox="0 0 512.000000 512.000000"><path d="M165 1c-9.9 1.8-15.6 10.8-13.5 21.6.5 2.9 2.9 6 11.6 14.9L174 48.7l-1.4 4.1c-3.1 8.6-3.8 17-3.8 45.4l-.1 28.8-7.7 5.4c-14.9 10.5-24.7 23.9-27.2 37.4-2.3 12.3 2.1 26 12.2 38l5.3 6.3-2.4 1.7c-4.3 2.9-16 14.5-20.4 20.2-12.8 16.6-21.5 41.3-21.5 60.9v6.6l8.9 9.3c9.4 9.7 12.7 11.5 17.2 9.2 1.3-.7 9.8-8.9 18.7-18.1 15.3-15.8 16.6-16.9 20-16.9 3.5 0 4.8 1.1 21.2 18 16.1 16.5 17.8 18 21 18 3.2 0 4.9-1.4 21.1-18 16.4-16.8 17.9-18 21.3-18 4.1 0 4.1 0 21.2 18 14.7 15.5 17.8 18 21.8 18 2.7 0 5.3-2.2 20.7-18 16.2-16.6 17.9-18 21.1-18 3.2 0 4.9 1.4 21 18 22.1 22.7 20.8 22.4 35.6 6.9l8.2-8.6v-6.5c0-25.2-12.4-53.3-31.7-71.9-4.3-4.1-8.9-8.3-10.2-9.2l-2.4-1.6 5.3-6.3c13.6-16.2 16.3-33.6 7.9-50.7-3.8-7.6-16.3-20.8-25-26.3l-5.6-3.6V98.4c-.1-28.6-.8-36.9-3.9-45.6l-1.4-4.2L349.4 38c11-11.1 12.6-13.6 12.6-20.1 0-9.2-6.6-16-16-16.7-7.4-.5-10.4 1-20.7 11.1l-8.2 7.9-2.8-2C300.2 8.2 276 1 256.5 1c-17.7 0-38.6 5.7-53.3 14.5l-7.6 4.6-8-8C177 1.8 172.7-.3 165 1zm71.1 63.9l2.9 2.9v38.9l-9.2 1.2c-8.4 1.1-19.5 3.3-24 4.7-1.7.5-1.8-1-1.8-22.3 0-23.9.1-24.8 4.5-27.1 1.1-.6 7.1-1.2 13.3-1.2 11.2 0 11.4 0 14.3 2.9zm68.8-1.4c1.6.8 3.1 2.2 3.5 3 .3.9.6 11.8.6 24.1 0 21-.1 22.5-1.7 22-4.6-1.4-15.7-3.6-24-4.7l-9.3-1.2V67.8l2.9-2.9C279.8 62 280 62 291 62c7.8 0 11.9.4 13.9 1.5zM100.5 355.5c-1.8 1.7-2.5 3.5-2.5 6.2 0 3.3.8 4.7 5.9 10 8.3 8.8 12.4 10 17.8 5.1 5.1-4.7 3.8-9.6-5-17.9-5.3-5.1-6.7-5.9-10-5.9-2.7 0-4.5.7-6.2 2.5zM220.5 358.1c-8.8 8.1-10.6 13.4-6.1 18.2 5.4 5.8 10.8 4.5 19.1-4.5 4.7-5 5.5-6.5 5.5-9.7 0-5.3-3.8-9.1-9.1-9.1-3.1 0-4.7.9-9.4 5.1zM276.6 355.6c-2.8 2.9-3.4 7-1.5 10.5 1.9 3.6 12.2 12.8 15 13.4 6 1.3 11.8-5 10.4-11.3-.4-1.8-3.1-5.4-7-9.1-5.6-5.4-6.8-6.1-10.3-6.1-2.9 0-4.6.7-6.6 2.6zM395.9 359.7c-7.3 7.5-8.1 9-7.2 13.3.7 3.9 6.2 7.5 10.1 6.5 1.5-.3 5.7-3.6 9.5-7.3 5.8-5.8 6.7-7.1 6.7-10.3 0-5.5-3.1-8.9-8.3-8.9-3.9 0-4.8.5-10.8 6.7zM156.1 362.6c-3.6 1.5-6.2 6.4-5.2 10 .9 3.4 12.3 15 15.3 15.6 6.2 1.2 12.2-4.8 11-11-.6-3-12.2-14.4-15.6-15.3-1.3-.4-3.7 0-5.5.7zM351.5 361.8c-2.6.5-14.4 11.9-15.6 15.1-1.6 3.9.7 9 4.7 10.7 1.9.8 4.5 1.2 5.8.8 3-.7 15.4-13.3 15.6-15.9.3-3.2 0-5.9-.8-7.2-1.1-1.8-7.4-4-9.7-3.5zM129.5 414.9c-1.1.5-4.8 3.8-8.2 7.4-7 7.3-7.9 10.4-4.2 15.1 5 6.4 10.2 5.2 19.2-4.2 4.4-4.7 5.7-6.7 5.7-9.2 0-4.2-1.5-6.7-5-8.5-3.2-1.7-4.6-1.8-7.5-.6zM200.4 415c-3.2 1.3-5.4 5-5.4 9 0 3.1.9 4.5 5.7 9.4 3.1 3.2 6.5 6.2 7.4 6.7 4.6 2.4 11.2 0 13-4.8 1.5-4-.5-8.3-6.9-14.5-5.9-5.8-9.9-7.4-13.8-5.8zM305.5 415.4c-4.4 1.9-13.1 11.6-14 15.5-.5 2.6-.2 4 1.2 6 2.2 2.9 7.6 5.1 10.6 4.3 2.9-.7 13.4-10.9 14.4-14 1.3-3.7-.2-8.6-3.3-11.1-3.1-2.4-4.7-2.5-8.9-.7zM375.8 415.6c-3.4 1.8-4.8 4.3-4.8 8.4 0 2.6 1.3 4.5 6.7 10.1 5.9 6.1 7 6.9 10.4 6.9 5 0 8.8-3.3 9.6-8.2.5-3.5.2-4.1-5.3-9.8-5.8-6.1-10-9-12.6-9-.7.1-2.5.7-4 1.6zM174 450.1c-4.2 1.7-13.9 12-14.6 15.5-1.2 6.3 5 12.5 10.9 11 1.3-.3 5.3-3.7 9-7.5 7-7.2 8.2-10.4 5.6-15.3-.8-1.5-6.8-5-8.1-4.7-.2 0-1.4.5-2.8 1zM332.3 450.5c-6.5 2.8-7.1 9.1-1.5 15.8 4.8 5.8 9.2 9.4 12.4 10.2 5.6 1.4 12-5.2 10.3-10.7-1.4-4.3-11.8-14.9-16-16.1-1.1-.3-3.4 0-5.2.8zM253.5 458.9c-4.6 1.9-7.2 7.2-5.5 11.6 1.3 3.5 11.7 13.5 15.1 14.5 6.1 1.8 12.7-4.8 10.9-10.9-1-3.4-11-13.8-14.5-15.1-3-1.2-3.3-1.2-6-.1z"/></svg>